<svg width="182" height="25" viewBox="0 0 182 25" fill="none" xmlns="http://www.w3.org/2000/svg">
<path d="M22.2483 0H2.56711C1.15092 0 0 1.15092 0 2.56711V22.2483C0 23.6644 1.15092 24.8154 2.56711 24.8154H22.2483C23.6644 24.8154 24.8154 23.6644 24.8154 22.2483V2.56711C24.8154 1.15092 23.6644 0 22.2483 0Z" fill="url(#paint0_linear_2637_48)"/>
<path fill-rule="evenodd" clip-rule="evenodd" d="M5.88724 5.6048C6.69067 5.6048 7.34198 6.25611 7.34198 7.05954V17.7562C7.34198 18.5596 6.69067 19.2109 5.88724 19.2109C5.0838 19.2109 4.4325 18.5596 4.4325 17.7562V7.05954C4.4325 6.25611 5.0838 5.6048 5.88724 5.6048Z" fill="white"/>
<path fill-rule="evenodd" clip-rule="evenodd" d="M18.9282 5.6048C19.7316 5.6048 20.3829 6.25611 20.3829 7.05954V17.7562C20.3829 18.5596 19.7316 19.2109 18.9282 19.2109C18.1248 19.2109 17.4734 18.5596 17.4734 17.7562V7.05954C17.4734 6.25611 18.1248 5.6048 18.9282 5.6048Z" fill="white"/>
<path fill-rule="evenodd" clip-rule="evenodd" d="M4.97032 5.93023C5.59405 5.4238 6.51022 5.51889 7.01664 6.14262L13.5373 14.1737C14.0437 14.7974 13.9486 15.7135 13.3249 16.22C12.7012 16.7264 11.785 16.6313 11.2786 16.0076L4.75793 7.97655C4.2515 7.35282 4.34659 6.43665 4.97032 5.93023Z" fill="white"/>
<path fill-rule="evenodd" clip-rule="evenodd" d="M19.8454 5.93023C20.4691 6.43665 20.5642 7.35282 20.0577 7.97655L13.5371 16.0076C13.0307 16.6313 12.1145 16.7264 11.4908 16.22C10.867 15.7135 10.7719 14.7974 11.2784 14.1737L17.799 6.14262C18.3055 5.51889 19.2216 5.4238 19.8454 5.93023Z" fill="white"/>
<path d="M174.94 13.2018V19.646H172.348V8.6479H174.825V10.5167H174.954C175.207 9.90094 175.611 9.41166 176.164 9.04887C176.723 8.68609 177.413 8.5047 178.234 8.5047C178.993 8.5047 179.654 8.667 180.217 8.99159C180.785 9.31619 181.224 9.78638 181.534 10.4022C181.849 11.0179 182.005 11.765 182 12.6433V19.646H179.408V13.0443C179.408 12.3092 179.217 11.734 178.835 11.3187C178.458 10.9034 177.935 10.6957 177.267 10.6957C176.813 10.6957 176.41 10.796 176.057 10.9965C175.708 11.1922 175.434 11.4762 175.233 11.8485C175.038 12.2208 174.94 12.6719 174.94 13.2018Z" fill="black"/>
<path d="M168.3 19.6459V8.64784H170.892V19.6459H168.3ZM169.604 7.08691C169.193 7.08691 168.84 6.95087 168.544 6.67878C168.248 6.40192 168.1 6.07016 168.1 5.68351C168.1 5.29209 168.248 4.96033 168.544 4.68824C168.84 4.41138 169.193 4.27295 169.604 4.27295C170.019 4.27295 170.372 4.41138 170.663 4.68824C170.959 4.96033 171.107 5.29209 171.107 5.68351C171.107 6.07016 170.959 6.40192 170.663 6.67878C170.372 6.95087 170.019 7.08691 169.604 7.08691Z" fill="black"/>
<path d="M161.097 19.8679C160.4 19.8679 159.772 19.7438 159.214 19.4956C158.66 19.2426 158.221 18.8703 157.896 18.3786C157.576 17.887 157.417 17.2807 157.417 16.5599C157.417 15.9394 157.531 15.4262 157.76 15.0205C157.989 14.6147 158.302 14.2901 158.698 14.0467C159.094 13.8033 159.541 13.6195 160.037 13.4954C160.538 13.3665 161.056 13.2734 161.591 13.2161C162.235 13.1493 162.758 13.0896 163.159 13.0371C163.56 12.9798 163.851 12.8939 164.033 12.7793C164.219 12.66 164.312 12.4762 164.312 12.228V12.185C164.312 11.6456 164.152 11.228 163.832 10.932C163.512 10.6361 163.052 10.4881 162.45 10.4881C161.815 10.4881 161.312 10.6265 160.939 10.9034C160.572 11.1802 160.324 11.5072 160.195 11.8843L157.775 11.5406C157.965 10.8723 158.281 10.3138 158.72 9.86514C159.159 9.41166 159.696 9.07274 160.331 8.84839C160.966 8.61926 161.667 8.5047 162.436 8.5047C162.966 8.5047 163.493 8.56675 164.018 8.69086C164.543 8.81497 165.023 9.02023 165.457 9.30664C165.892 9.58828 166.24 9.97254 166.503 10.4594C166.77 10.9463 166.904 11.5549 166.904 12.2853V19.646H164.412V18.1352H164.326C164.169 18.4407 163.947 18.7271 163.66 18.9944C163.379 19.2569 163.023 19.4694 162.593 19.6317C162.169 19.7892 161.67 19.8679 161.097 19.8679ZM161.77 17.9633C162.29 17.9633 162.741 17.8607 163.123 17.6554C163.505 17.4454 163.799 17.1685 164.004 16.8249C164.214 16.4812 164.319 16.1065 164.319 15.7007V14.4047C164.238 14.4715 164.099 14.5336 163.904 14.5909C163.713 14.6482 163.498 14.6983 163.259 14.7412C163.021 14.7842 162.784 14.8224 162.55 14.8558C162.316 14.8892 162.114 14.9179 161.942 14.9417C161.555 14.9942 161.209 15.0802 160.904 15.1995C160.598 15.3188 160.357 15.4859 160.18 15.7007C160.004 15.9107 159.915 16.1828 159.915 16.517C159.915 16.9943 160.09 17.3547 160.438 17.5982C160.787 17.8416 161.231 17.9633 161.77 17.9633Z" fill="black"/>
<path d="M149.368 13.2017V19.6459H146.776V4.98181H149.311V10.5167H149.44C149.698 9.8961 150.096 9.40682 150.636 9.04881C151.18 8.68603 151.872 8.50463 152.712 8.50463C153.476 8.50463 154.142 8.66454 154.71 8.98437C155.278 9.30419 155.717 9.77199 156.027 10.3878C156.342 11.0035 156.5 11.7554 156.5 12.6432V19.6459H153.908V13.0442C153.908 12.3043 153.717 11.7291 153.335 11.3186C152.958 10.9033 152.428 10.6957 151.745 10.6957C151.287 10.6957 150.877 10.7959 150.514 10.9964C150.156 11.1921 149.874 11.4761 149.669 11.8484C149.468 12.2208 149.368 12.6719 149.368 13.2017Z" fill="black"/>
<path d="M141.146 19.8608C140.048 19.8608 139.105 19.6197 138.318 19.1376C137.535 18.6555 136.931 17.9896 136.506 17.1399C136.086 16.2855 135.876 15.3021 135.876 14.1899C135.876 13.0729 136.091 12.0872 136.521 11.2327C136.95 10.3735 137.556 9.70523 138.339 9.22788C139.127 8.74576 140.058 8.5047 141.132 8.5047C142.024 8.5047 142.814 8.66938 143.502 8.99875C144.194 9.32335 144.745 9.78399 145.156 10.3807C145.566 10.9726 145.8 11.6647 145.858 12.4571H143.38C143.28 11.9273 143.041 11.4857 142.664 11.1325C142.292 10.7745 141.793 10.5955 141.168 10.5955C140.638 10.5955 140.172 10.7387 139.771 11.0251C139.37 11.3067 139.058 11.7125 138.833 12.2423C138.614 12.7722 138.504 13.4071 138.504 14.1469C138.504 14.8964 138.614 15.5408 138.833 16.0802C139.053 16.6148 139.361 17.0277 139.757 17.3189C140.158 17.6053 140.628 17.7485 141.168 17.7485C141.549 17.7485 141.891 17.6769 142.192 17.5337C142.497 17.3857 142.752 17.1733 142.958 16.8965C143.163 16.6196 143.304 16.2831 143.38 15.8869H145.858C145.795 16.6649 145.566 17.3547 145.17 17.9562C144.774 18.5529 144.235 19.0207 143.552 19.3596C142.869 19.6937 142.067 19.8608 141.146 19.8608Z" fill="black"/>
<path d="M128.895 16.1947L128.888 13.0657H129.303L133.255 8.64784H136.284L131.422 14.061H130.885L128.895 16.1947ZM126.532 19.6459V4.98181H129.124V19.6459H126.532ZM133.434 19.6459L129.854 14.6409L131.601 12.8151L136.535 19.6459H133.434Z" fill="black"/>
<path d="M120.902 19.8608C119.804 19.8608 118.861 19.6197 118.074 19.1376C117.291 18.6555 116.687 17.9896 116.262 17.1399C115.842 16.2855 115.632 15.3021 115.632 14.1899C115.632 13.0729 115.847 12.0872 116.276 11.2327C116.706 10.3735 117.312 9.70523 118.095 9.22788C118.883 8.74576 119.814 8.5047 120.888 8.5047C121.78 8.5047 122.57 8.66938 123.258 8.99875C123.95 9.32335 124.501 9.78399 124.912 10.3807C125.322 10.9726 125.556 11.6647 125.613 12.4571H123.136C123.036 11.9273 122.797 11.4857 122.42 11.1325C122.048 10.7745 121.549 10.5955 120.923 10.5955C120.394 10.5955 119.928 10.7387 119.527 11.0251C119.126 11.3067 118.814 11.7125 118.589 12.2423C118.37 12.7722 118.26 13.4071 118.26 14.1469C118.26 14.8964 118.37 15.5408 118.589 16.0802C118.809 16.6148 119.117 17.0277 119.513 17.3189C119.914 17.6053 120.384 17.7485 120.923 17.7485C121.305 17.7485 121.647 17.6769 121.947 17.5337C122.253 17.3857 122.508 17.1733 122.713 16.8965C122.919 16.6196 123.06 16.2831 123.136 15.8869H125.613C125.551 16.6649 125.322 17.3547 124.926 17.9562C124.53 18.5529 123.99 19.0207 123.308 19.3596C122.625 19.6937 121.823 19.8608 120.902 19.8608Z" fill="black"/>
<path d="M109.844 19.8608C108.77 19.8608 107.84 19.6245 107.052 19.1519C106.264 18.6794 105.653 18.0182 105.219 17.1685C104.789 16.3189 104.575 15.326 104.575 14.1899C104.575 13.0538 104.789 12.0585 105.219 11.2041C105.653 10.3496 106.264 9.68613 107.052 9.21356C107.84 8.74099 108.77 8.5047 109.844 8.5047C110.919 8.5047 111.849 8.74099 112.637 9.21356C113.425 9.68613 114.033 10.3496 114.463 11.2041C114.897 12.0585 115.114 13.0538 115.114 14.1899C115.114 15.326 114.897 16.3189 114.463 17.1685C114.033 18.0182 113.425 18.6794 112.637 19.1519C111.849 19.6245 110.919 19.8608 109.844 19.8608ZM109.859 17.7843C110.441 17.7843 110.928 17.6244 111.319 17.3046C111.711 16.98 112.002 16.5456 112.193 16.0014C112.389 15.4573 112.487 14.851 112.487 14.1827C112.487 13.5097 112.389 12.9011 112.193 12.3569C112.002 11.8079 111.711 11.3712 111.319 11.0466C110.928 10.722 110.441 10.5597 109.859 10.5597C109.262 10.5597 108.766 10.722 108.369 11.0466C107.978 11.3712 107.684 11.8079 107.489 12.3569C107.298 12.9011 107.202 13.5097 107.202 14.1827C107.202 14.851 107.298 15.4573 107.489 16.0014C107.684 16.5456 107.978 16.98 108.369 17.3046C108.766 17.6244 109.262 17.7843 109.859 17.7843Z" fill="black"/>
<path d="M103.592 4.98181V19.6459H101V4.98181H103.592Z" fill="black"/>
<path d="M89.0721 19.6459V4.98181H94.6857C95.7455 4.98181 96.6262 5.14888 97.3279 5.48303C98.0343 5.8124 98.5618 6.26349 98.9103 6.8363C99.2635 7.40912 99.4401 8.05831 99.4401 8.78388C99.4401 9.38057 99.3256 9.89133 99.0964 10.3162C98.8673 10.7362 98.5594 11.0775 98.1728 11.3401C97.7861 11.6026 97.3541 11.7912 96.8768 11.9057V12.0489C97.3971 12.0776 97.8959 12.2375 98.3733 12.5287C98.8554 12.8151 99.2492 13.2208 99.5547 13.7459C99.8602 14.271 100.013 14.9059 100.013 15.6505C100.013 16.4095 99.8292 17.0921 99.4616 17.6983C99.094 18.2998 98.5403 18.7748 97.8004 19.1232C97.0605 19.4717 96.1297 19.6459 95.008 19.6459H89.0721ZM91.7286 17.4263H94.5855C95.5497 17.4263 96.2443 17.2425 96.6691 16.8749C97.0987 16.5026 97.3135 16.0252 97.3135 15.4429C97.3135 15.0085 97.2061 14.6171 96.9913 14.2686C96.7765 13.9154 96.471 13.6385 96.0748 13.438C95.6786 13.2328 95.2061 13.1301 94.6571 13.1301H91.7286V17.4263ZM91.7286 11.2184H94.3564C94.8146 11.2184 95.2275 11.1348 95.5951 10.9677C95.9627 10.7959 96.2514 10.5548 96.4615 10.2446C96.6763 9.92951 96.7837 9.55718 96.7837 9.12757C96.7837 8.55953 96.5832 8.09173 96.1822 7.72417C95.786 7.35661 95.1965 7.17283 94.4137 7.17283H91.7286V11.2184Z" fill="black"/>
<path d="M83.7103 4.98181V19.6459H81.1183V4.98181H83.7103Z" fill="black"/>
<path d="M73.9149 19.8679C73.218 19.8679 72.5903 19.7438 72.0318 19.4956C71.478 19.2426 71.0389 18.8703 70.7143 18.3786C70.3945 17.887 70.2346 17.2807 70.2346 16.5599C70.2346 15.9394 70.3491 15.4262 70.5782 15.0205C70.8074 14.6147 71.12 14.2901 71.5162 14.0467C71.9124 13.8033 72.3588 13.6195 72.8552 13.4954C73.3564 13.3665 73.8743 13.2734 74.409 13.2161C75.0534 13.1493 75.5761 13.0896 75.977 13.0371C76.378 12.9798 76.6692 12.8939 76.8506 12.7793C77.0368 12.66 77.1298 12.4762 77.1298 12.228V12.185C77.1298 11.6456 76.9699 11.228 76.6501 10.932C76.3303 10.6361 75.8696 10.4881 75.2682 10.4881C74.6333 10.4881 74.1297 10.6265 73.7574 10.9034C73.3898 11.1802 73.1416 11.5072 73.0127 11.8843L70.5926 11.5406C70.7835 10.8723 71.0986 10.3138 71.5377 9.86514C71.9769 9.41166 72.5139 9.07274 73.1488 8.84839C73.7836 8.61926 74.4853 8.5047 75.2539 8.5047C75.7837 8.5047 76.3112 8.56675 76.8363 8.69086C77.3614 8.81497 77.8411 9.02023 78.2755 9.30664C78.7099 9.58828 79.0583 9.97254 79.3209 10.4594C79.5882 10.9463 79.7218 11.5549 79.7218 12.2853V19.646H77.2301V18.1352H77.1442C76.9866 18.4407 76.7647 18.7271 76.4783 18.9944C76.1966 19.2569 75.841 19.4694 75.4114 19.6317C74.9865 19.7892 74.4877 19.8679 73.9149 19.8679ZM74.588 17.9633C75.1083 17.9633 75.5594 17.8607 75.9412 17.6554C76.3231 17.4454 76.6167 17.1685 76.8219 16.8249C77.032 16.4812 77.137 16.1065 77.137 15.7007V14.4047C77.0558 14.4715 76.9174 14.5336 76.7217 14.5909C76.5308 14.6482 76.316 14.6983 76.0773 14.7412C75.8386 14.7842 75.6023 14.8224 75.3684 14.8558C75.1345 14.8892 74.9317 14.9179 74.7598 14.9417C74.3732 14.9942 74.0271 15.0802 73.7216 15.1995C73.4161 15.3188 73.175 15.4859 72.9984 15.7007C72.8218 15.9107 72.7335 16.1828 72.7335 16.517C72.7335 16.9943 72.9077 17.3547 73.2562 17.5982C73.6046 17.8416 74.0486 17.9633 74.588 17.9633Z" fill="black"/>
<path d="M69.7921 8.64783V10.6527H63.4697V8.64783H69.7921ZM65.0306 6.01288H67.6226V16.3379C67.6226 16.6864 67.6751 16.9537 67.7801 17.1398C67.8899 17.3212 68.0331 17.4453 68.2097 17.5122C68.3863 17.579 68.5821 17.6124 68.7969 17.6124C68.9592 17.6124 69.1071 17.6005 69.2408 17.5766C69.3792 17.5527 69.4842 17.5313 69.5558 17.5122L69.9926 19.5385C69.8542 19.5862 69.6561 19.6388 69.3983 19.696C69.1453 19.7533 68.835 19.7867 68.4675 19.7963C67.8183 19.8154 67.2335 19.7175 66.7132 19.5027C66.1929 19.2831 65.78 18.9442 65.4745 18.486C65.1738 18.0277 65.0258 17.4549 65.0306 16.7675V6.01288Z" fill="black"/>
<path d="M58.4268 19.8608C57.3241 19.8608 56.3718 19.6317 55.5699 19.1734C54.7727 18.7104 54.1593 18.0564 53.7297 17.2115C53.3001 16.3618 53.0853 15.3618 53.0853 14.2114C53.0853 13.0801 53.3001 12.0872 53.7297 11.2327C54.1641 10.3735 54.7703 9.70523 55.5484 9.22788C56.3265 8.74576 57.2406 8.5047 58.2908 8.5047C58.9686 8.5047 59.6082 8.61449 60.2097 8.83407C60.8159 9.04887 61.3506 9.38302 61.8136 9.8365C62.2814 10.29 62.6489 10.8676 62.9163 11.5693C63.1836 12.2662 63.3172 13.0968 63.3172 14.061V14.8558H54.3025V13.1087H60.8326C60.8279 12.6123 60.7205 12.1707 60.5104 11.7841C60.3004 11.3926 60.0068 11.0848 59.6297 10.8604C59.2574 10.6361 58.823 10.5239 58.3266 10.5239C57.7967 10.5239 57.3313 10.6528 56.9303 10.9105C56.5294 11.1635 56.2167 11.4977 55.9923 11.913C55.7728 12.3235 55.6606 12.7746 55.6558 13.2662V14.7914C55.6558 15.431 55.7728 15.98 56.0067 16.4382C56.2406 16.8917 56.5675 17.2401 56.9876 17.4836C57.4077 17.7223 57.8993 17.8416 58.4626 17.8416C58.8397 17.8416 59.181 17.7891 59.4865 17.6841C59.792 17.5743 60.057 17.4144 60.2813 17.2043C60.5057 16.9943 60.6751 16.7342 60.7897 16.4239L63.2098 16.696C63.0571 17.3356 62.7659 17.8941 62.3363 18.3715C61.9114 18.844 61.3673 19.2116 60.7038 19.4741C60.0402 19.7319 59.2813 19.8608 58.4268 19.8608Z" fill="black"/>
<path d="M36.6094 4.98181H39.8601L44.2135 15.6076H44.3854L48.7388 4.98181H51.9895V19.6459H49.4405V9.5715H49.3044L45.2517 19.603H43.3471L39.2945 9.55002H39.1584V19.6459H36.6094V4.98181Z" fill="black"/>
<defs>
<linearGradient id="paint0_linear_2637_48" x1="-0.231039" y1="0.825752" x2="24.1522" y2="23.1681" gradientUnits="userSpaceOnUse">
<stop stop-color="#FC9237"/>
<stop offset="0.48" stop-color="#7013C5"/>
<stop offset="1" stop-color="#20BF55"/>
</linearGradient>
</defs>
</svg>
